<svg xmlns="http://www.w3.org/2000/svg" width="37" height="29" fill="none"><path fill="#fff" stroke="#fff" stroke-width=".5" d="M12.107 10.49c1.623-.25 3.21.806 3.836 2.427l.112.332v.002c.088.311.131.763.135 1.198.004.436-.03.89-.114 1.207v.001c-.32 1.188-1.195 2.234-2.25 2.67l-.213.08c-.3.098-.678.144-1.042.144s-.738-.046-1.031-.146c-1.222-.416-2.22-1.628-2.513-3.011l-.036-.189c-.154-.955.047-2.07.516-2.914v-.001c.51-.91 1.578-1.65 2.6-1.8Zm.878 1.372c-.34-.071-.815-.02-1.185.118l-.152.065c-.135.065-.402.27-.59.452-.282.28-.47.551-.59.858-.12.31-.178.67-.178 1.135 0 .59.076.953.28 1.356l.096.175.001.002c.315.556.902 1.013 1.453 1.153.158.038.39.046.637.02.184-.019.362-.056.509-.104l.134-.052c.635-.292 1.045-.738 1.326-1.451.065-.18.1-.294.12-.433.021-.145.03-.325.033-.636.003-.33 0-.504-.022-.643a2 2 0 0 0-.137-.447l-.001-.001c-.3-.775-1.026-1.415-1.734-1.566ZM23.018 10.737c1.695-.775 3.776.094 4.595 1.88.16.349.264.613.325.902.06.287.076.587.076 1.004 0 1.53-.647 2.792-1.85 3.542-.367.231-.833.382-1.304.45-.47.067-.964.055-1.387-.06h-.002c-.482-.135-.917-.395-1.34-.78l-.18-.173c-2.016-2.022-1.472-5.603 1.067-6.765Zm1.199 1.112c-.846.067-1.684.647-2.048 1.742-.057.18-.096.503-.103.85-.006.348.022.675.075.864l.054.17c.28.787.902 1.424 1.596 1.664l.15.045c.114.03.326.038.572.015.241-.022.483-.071.651-.134.477-.181.955-.639 1.241-1.222.433-.883.438-1.718.024-2.6-.48-1.023-1.368-1.462-2.212-1.394Z"/><path fill="#fff" stroke="#fff" stroke-width=".5" d="M13.417.25q.098 0 .195.024a.75.75 0 0 1 .357.216c.141.147.275.374.436.695l.172.352.214.44c.056.11.097.184.13.235l.003.004c.078-.014.188-.033.31-.052.206-.032.473-.071.75-.112h.001c1.803-.25 4.507-.18 6.262.177l.363-.733.279-.557q.114-.217.2-.338a.8.8 0 0 1 .209-.213.7.7 0 0 1 .234-.096v.002A.8.8 0 0 1 23.77.28q.127.01.3.035c.227.036.52.094.854.17.501.115 1.104.272 1.74.453l.646.19c.71.217 1.644.572 2.43.905.392.167.751.33 1.029.47.138.07.26.135.355.193.087.053.18.116.238.183.03.035.075.1.119.164q.076.115.189.292c.149.234.34.54.535.862 2.068 3.4 3.389 6.746 4.125 10.442h.001c.18.916.275 1.425.324 2.169.049.736.052 1.706.052 3.547v3.517l-.08.074-.17.157c-.294.27-.935.738-1.618 1.2a27 27 0 0 1-1.953 1.222v.001c-1.605.883-2.911 1.449-4.489 1.964v.001c-.469.151-.777.242-.999.256a.7.7 0 0 1-.337-.052.8.8 0 0 1-.243-.18l-.004-.003a6 6 0 0 1-.416-.58c-.18-.27-.395-.607-.603-.942a37 37 0 0 1-.568-.94 11 11 0 0 1-.197-.354 2 2 0 0 1-.111-.242.57.57 0 0 1 .02-.458 24 24 0 0 1-3.867.847c-.517.068-1.442.106-2.35.112s-1.824-.018-2.324-.08v-.001a24 24 0 0 1-4.097-.876q.056.105.06.229a.75.75 0 0 1-.074.311v.004c-.148.32-.567 1.024-.97 1.661-.203.322-.406.633-.574.877q-.127.184-.224.313c-.06.077-.12.154-.173.2l-.003.003a.6.6 0 0 1-.273.136 1 1 0 0 1-.341.004 3.4 3.4 0 0 1-.443-.1l-.644-.202c-2.193-.731-4.059-1.635-5.83-2.82-.3-.2-.806-.559-1.255-.883a52 52 0 0 1-.602-.439 6 6 0 0 1-.339-.264.43.43 0 0 1-.107-.178 2 2 0 0 1-.046-.18 6 6 0 0 1-.072-.506 25 25 0 0 1-.104-1.499c-.049-1.135-.055-2.452.016-3.253.114-1.262.367-3.233.521-3.966.487-2.352 1.02-4.17 1.69-5.739a34 34 0 0 1 2.848-5.285c.221-.34.351-.556.647-.755.271-.183.69-.359 1.472-.692 1.696-.73 4.453-1.551 5.744-1.712zm-.438 1.584c-.103.015-.24.04-.402.073-.324.066-.743.163-1.187.276l-.001-.001a27 27 0 0 0-3.677 1.284c-.537.235-.726.316-.884.46-.162.148-.291.367-.64.94-.88 1.456-1.014 1.696-1.595 2.878-.75 1.524-1.116 2.463-1.667 4.216-.924 2.958-1.399 6.63-1.237 9.578.026.459.043.791.061 1.041.018.253.037.402.063.501a.3.3 0 0 0 .075.152 1 1 0 0 0 .082.07l.146.107.001.001c2.362 1.73 4.11 2.664 6.744 3.6h.001c.19.068.374.13.52.174q.11.033.18.05l.02.005.013-.01a1 1 0 0 0 .097-.125l.147-.22c.234-.37.442-.71.59-.965q.096-.17.154-.28l-.031-.017-.003-.002c-.684-.317-1.692-.844-2.077-1.093-.222-.142-.4-.28-.503-.445-.117-.187-.118-.376-.07-.565h-.002a.6.6 0 0 1 .096-.193q.058-.08.136-.164c.102-.111.233-.234.365-.348s.272-.223.395-.305q.092-.063.178-.107a.5.5 0 0 1 .214-.06l.102.015q.042.01.088.025.092.03.212.079c.157.064.35.151.54.248l.334.16c1.696.78 3.876 1.357 6.05 1.585h.001c1.003.111 2.78.118 3.74.025 2.386-.23 4.857-.891 6.735-1.802l.284-.138q.127-.06.232-.101a.95.95 0 0 1 .424-.084c.15.013.274.076.39.157.11.077.234.189.38.316l.157.142c.146.138.258.264.33.391.108.192.12.374.077.566a.65.65 0 0 1-.184.311q-.131.133-.352.276c-.22.143-.526.314-.938.524l-.447.224-.78.387c.08.139.207.349.396.655.265.426.432.688.54.843q.038.051.063.083l.142-.043c.153-.05.357-.12.575-.196.438-.153.927-.333 1.188-.44a34 34 0 0 0 2.747-1.33h.002c.258-.138.919-.562 1.562-.991.32-.213.63-.426.879-.6.255-.178.43-.307.49-.36l.15-.135.062-.824c.162-2.357.007-4.715-.5-7.385v-.001c-.3-1.603-.994-3.856-1.667-5.487L33 8.777a38 38 0 0 0-2.41-4.495h-.001c-.131-.215-.195-.306-.26-.368-.062-.057-.135-.1-.317-.185-.108-.05-.21-.093-.285-.125l-.09-.038-.019-.006-.022-.007-.034-.013-.087-.035-.248-.109h-.001c-.574-.259-1.672-.665-2.572-.94a30 30 0 0 0-1.674-.452 15 15 0 0 0-.668-.147 4 4 0 0 0-.206-.035 2 2 0 0 0-.07.113c-.084.148-.2.38-.35.712-.12.269-.243.518-.341.703a4 4 0 0 1-.13.23 1 1 0 0 1-.056.082.299.299 0 0 1-.137.103l.002.003q-.007 0-.013.002l-.006.003-.001-.002a.5.5 0 0 1-.139.019q-.065-.001-.141-.01c-.1-.01-.223-.029-.344-.051l-.006-.001c-.99-.21-2.397-.316-3.81-.318-1.413-.001-2.81.101-3.78.304a3 3 0 0 1-.346.056q-.077.007-.144.005a1 1 0 0 1-.072-.006.3.3 0 0 1-.108-.038l-.008-.004a.3.3 0 0 1-.097-.096l-.053-.082a4 4 0 0 1-.129-.23 14 14 0 0 1-.333-.69v-.001a10 10 0 0 0-.357-.727q-.034-.054-.055-.08z"/></svg>